<svg id="Layer_1" enable-background="new 0 0 68 68" viewBox="0 0 68 68" xmlns="http://www.w3.org/2000/svg"><g><path d="m63.23305 33.17172h-.08008-4.37988l-3.51001-5.95001h6.18994c2.5 0 4.55005-2.03998 4.55005-4.53998 0-2.30005-1.70996-4.20001-3.92993-4.51001v-.04999c0-2.31006-1.87012-4.18005-4.17017-4.18005-1.02991 0-2.00989.37-2.75989 1.03003-.94006-1.56-2.65002-2.53998-4.54004-2.53998-1.27002 0-2.44006.44995-3.35999 1.19l-2.78002-4.72003c-1.3626-2.32113-4.71815-2.31933-6.07996 0-.3818.64739 1.96022-3.32373-7.48999 12.70001-.28489-.48328-4.65872-7.90279-4.38-7.42999-1.36286-2.32113-4.71801-2.31933-6.08008 0-1.14622 1.94274 4.15222-7.03769-11.20996 19h-.09998-4.35998c-1.58891 0-2.86585 1.35392-2.76001 2.94v.01001c.92389 12.92138 9.28995 23.35734 20.39001 27.68994h.00989c.48474.36356 5.9548 2.19 11.61011 2.19 17.49971 0 30.88927-13.74014 31.97998-29.88995.10579-1.58538-1.1704-2.94-2.76001-2.94zm-1.60999 1.5c-2.04517 2.55335-2.64238 4.13944-9.54004 0 .14507 0 9.64111 0 9.54004 0zm-11.02002-20.73999c1.67004 0 3.13 1.06 3.63 2.64996.19881.61797 1.03109.7081 1.35999.16003.4801-.80005 1.37-1.30005 2.30994-1.30005 1.47009 0 2.67017 1.20001 2.67017 2.68005 0 .19995-.02002.39996-.06006.58997-.13284.53081.31647.98166.82996.91998.02002 0 .03003-.00995.05005-.00995 1.68994.01996 3.10999 1.35999 3.10999 3.06 0 1.66998-1.37 3.03998-3.05005 3.03998h-7.06995-1.75-6.05994c-1.68005 0-3.04004-1.37-3.04004-3.03998 0-1.55053 1.15042-2.84965 2.71997-3.04004.42879-.03891.76799-.48021.64001-.95001-.03003-.08997-.05005-.19-.06006-.28998-.03992-.21002-.05994-.42999-.05994-.64001.00001-2.08885 1.69128-3.82995 3.82996-3.82995zm-10.93005-4.27002c.79507-1.35334 2.73927-1.31428 3.48999 0l3.02002 5.12c-.56995.84998-.90991 1.88-.90991 2.97998 0 .17999.01001.36005.02002.54999-.09009.03003-.18005.05005-.26001.09003h-10.51001zm-17.94995 5.27002c.78834-1.34233 2.72166-1.32532 3.5 0l3.60999 6.12h-10.71998zm-4.48999 7.62h12.47998c2.40432 4.07493 1.353 2.29556 3.66003 6.20996.20996.36005.67004.48004 1.02991.27002.3501-.21002.47009-.66998.26001-1.03003l-2.8999-4.91998 1.86999-3.17999h9.32996c-.57996.77002-.92993 1.73999-.92993 2.78003 0 2.5 2.04004 4.53998 4.54004 4.53998h6.94995l3.5 5.95001c-28.41847 0-17.73894 0-46.06006 0zm28.16992 14.01996v.01001c.79207 1.1881 1.97807 2.26676 2.54004 3.48999 1.12979 2.4333-.08292 5.16585-2.44995 5.92004-2.0709.63586-4.32059-.42843-6.14001-1.28003-1.17004-.56-2.38-1.13-3.70996-1.42999-3.43005-.76001-7.20007.57001-9.38 3.31-.7976.95692-1.39254 2.15684-2.29004 2.90997-2.04552 1.67214-5.75357 1.24361-8.42993-2.62994-1.19006-1.70001-2.15002-4.38-.94006-6.34003 1.61636-2.59836 5.65759-2.37703 8.53003-5.85999h.05994 21.28003c.30556.86873.60656 1.37341.92991 1.89997zm-41.8999-.56c-.06995-.66388.51097-1.33997 1.26001-1.33997.12716 0 3.86269 0 3.76001 0 .40757 1.6288.92574 3.45667.31995 4.90997-.63875 1.53741-2.46975 2.4533-4.01001 3.29999l-.05994-.01996c-.68626-2.11926-1.13966-4.71293-1.27002-6.84003zm31.54004 28.46002c-4.01458.15228-7.42257-.43195-11.21008-1.72003.72009-1.53998 1.58997-3.21997 2.66003-4.75995 1.22998-1.75 3.29004-4.05005 6.16992-5.09003 2.5469-.92955 2.69762.34302 3.90015 1.03003 1.83537.9693 3.73146-.63207 5.72998.69995.65991.45001 1.10986 1.16003 1.17993 1.88.06006.56-.08997 1.17004-.25 1.82001-.09998.38-.19995.76001-.25 1.14001-.18994 1.16998-.05005 2.39001.41003 3.53998-3.61415 1.29112-8.12384 1.49612-8.33996 1.46003zm9.75-1.96002c-.37012-.90997-.5-1.88-.34009-2.79999.05005-.33997.14001-.67999.21997-1.01001.19006-.75.39014-1.51996.29004-2.34998-.10999-1.16003-.80005-2.27002-1.82996-2.96002-2.43055-1.63789-4.7392-.18751-5.84998-.77997-.73614-.409-1.71674-2.38472-5.14001-1.12-2.56006.92999-4.94006 2.88-6.88 5.63995-1.16003 1.66003-2.08008 3.45001-2.83008 5.07001-7.90991-3.23998-14.20996-9.72997-17.15991-17.83996l.62-.35004c1.76543-.9784 3.54672-1.96611 4.33997-3.84998.71159-1.71575.32011-3.44324-.10999-5.25-.02002-.07001-.03003-.15002-.04993-.22003 0-.00995 0-.00995 0-.00995l.00989-.01001h10.97009c-2.26318 2.05041-5.93709 2.23878-7.72998 5.07001-1.59009 2.57996-.53003 5.81995.98999 7.98999 3.16067 4.59035 7.89113 5.15937 10.60986 2.92999 1.09319-.91349 1.66351-2.07405 2.51001-3.14001 1.83008-2.29999 5-3.41998 7.88013-2.77997 1.16992.25995 2.25.77997 3.3999 1.31995 2.27389 1.08981 4.72641 2.12807 7.22998 1.36005 3.22157-1.01838 4.86369-4.71111 3.36011-7.98004-.94217-1.97503-2.42171-2.87417-3.22009-4.76996h3.32996c1.85607 1.45467 6.15165 4.01996 8.84009 4.01996 3.00336 0 4.0102-2.6592 5.22998-3.98999h.01001c.61816.11884 1.05329.68898 1 1.31-.82008 12.20001-8.83009 22.39001-19.69996 26.5z"/><path d="m2.74843 24.97488c1.36621 0 2.47754 1.11133 2.47754 2.47754 0 .41406.33594.75.75.75s.75-.33594.75-.75c0-1.36621 1.11133-2.47754 2.47754-2.47754.41406 0 .75-.33594.75-.75s-.33594-.75-.75-.75c-1.32715 0-2.50439.65332-3.22754 1.65527-.72314-1.00195-1.90039-1.65527-3.22754-1.65527-.41406 0-.75.33594-.75.75s.33594.75.75.75z"/><path d="m52.19667 7.29324c1.36621 0 2.47754 1.11133 2.47754 2.47754 0 .41406.33594.75.75.75s.75-.33594.75-.75c0-1.36621 1.11133-2.47754 2.47754-2.47754.41406 0 .75-.33594.75-.75s-.33594-.75-.75-.75c-1.32715 0-2.50439.65332-3.22754 1.65527-.72314-1.00195-1.90039-1.65527-3.22754-1.65527-.41406 0-.75.33594-.75.75s.33594.75.75.75z"/><path d="m26.96132 3.49832c1.64697 0 2.98682 1.33984 2.98682 2.9873 0 .41406.33594.75.75.75s.75-.33594.75-.75c0-1.64746 1.33984-2.9873 2.98681-2.9873.41406 0 .75-.33594.75-.75s-.33594-.75-.75-.75c-1.55762 0-2.93213.79785-3.73681 2.00586-.80469-1.20801-2.1792-2.00586-3.73682-2.00586-.41406 0-.75.33594-.75.75s.33594.75.75.75z"/><path d="m10.47304 15.31168c3.67004 0 6.65002-2.98999 6.65002-6.65997s-2.97998-6.65002-6.65002-6.65002c-3.66992 0-6.65991 2.98004-6.65991 6.65002s2.98999 6.65997 6.65991 6.65997zm0-11.81c2.84009 0 5.15002 2.31 5.15002 5.15002s-2.30994 5.15997-5.15002 5.15997c-2.84998 0-5.15991-2.31995-5.15991-5.15997s2.30993-5.15002 5.15991-5.15002z"/></g></svg>