<svg height="512" viewBox="0 0 52 60" width="512" xmlns="http://www.w3.org/2000/svg"><g id="Page-1" fill="none" fill-rule="evenodd"><g id="094---Dying-Plant" fill="rgb(0,0,0)" transform="translate(0 -1)"><path id="Path" d="m10.311 57h3.689c.5522847 0 1-.4477153 1-1s-.4477153-1-1-1h-2.862l-.591-3.1c-.0669873-.3510134-.3161496-.6396259-.65362976-.75712-.33748021-.117494-.71200709-.0460194-.9825.1875-.27049291.2335195-.39585754.5936066-.32887024.94462l.746 3.917c.09194115.4699542.50413726.8087685.983.808z"/><g fill-rule="nonzero"><path id="Shape" d="m49.6 17.4c-1.5513382-1.3969447-3.5361085-2.2175471-5.621-2.324-.2034771-7.35393306-5.8846614-13.38862208-13.2129484-14.03510787-7.328287-.6464858-13.9782403 4.30037665-15.4660516 11.50510787-2.0069875.7177866-3.8077355 1.9159965-5.245 3.49-.2062708-.0376164-.41716214-.0426778-.625-.015-1.879.271-5.3 1.117-7.107 3.732s-1.381 6.116-.968 7.97c.22163572 1.0280069 1.20554926 1.7055705 2.245 1.546 1.879-.271 5.3-1.115 7.108-3.733 1.61-2.334 1.6-6.249.887-8.217.9789188-1.0448707 2.1463812-1.8954456 3.441-2.507-.011.23-.035.456-.035.688v11.5c-.0240146 2.6708124-1.6845293 5.0531865-4.182 6h-8.819c-1.1045695 0-2 .8954305-2 2v3c0 1.1045695.8954305 2 2 2h.172l3.536 18.562c.26979475 1.414689 1.50681449 2.4380532 2.947 2.438h18.69c1.4401855.0000532 2.6772052-1.023311 2.947-2.438l3.536-18.562h.172c1.1045695 0 2-.8954305 2-2v-3c0-1.1045695-.8954305-2-2-2h-8.818c-2.489552-.9569458-4.1457388-3.3331105-4.182-6v-11.5c.007558-4.6047866 3.6825185-8.36515433 8.2859165-8.47848375 4.603398-.11332943 8.4589448 3.46164745 8.6930835 8.06048375-2.0701166.1115381-4.0393493.929728-5.579 2.318-2.248 2.248-2.462 5.767-2.389 7.664.0327839 1.0491019.8758812 1.8917612 1.925 1.924 1.3699539.0634924 2.7417159-.0777283 4.07-.419.035 3.074 2.291 5.636 3.646 6.9.760259.7092725 1.939741.7092725 2.7 0 1.352-1.258 3.608-3.82 3.643-6.894 1.3283315.341007 2.7000536.4822236 4.07.419 1.0491188-.0322388 1.8922161-.8748981 1.925-1.924.072-1.903-.142-5.422-2.39-7.67zm-40.54 7c-1.426 2.068-4.493 2.709-5.749 2.888-.276-1.235-.763-4.333.663-6.4s4.493-2.706 5.746-2.888v-.026.027c.28 1.237.765 4.334-.66 6.399zm19.267 33.787c-.0897675.4715723-.5019598.8128272-.982.813h-18.69c-.48004017-.0001728-.89223251-.3414277-.982-.813l-3.464-18.187h27.582zm5.673-23.187v3h-32v-3zm-4.5-30c-5.7962485.00661295-10.493387 4.70375151-10.5 10.5v11.5c-.0210513 2.2709766.9099176 4.4469849 2.567 6h-7.135c1.6575541-1.552768 2.5889158-3.7288469 2.568-6v-11.5c-.0241288-6.82098321 5.4276715-12.40027385 12.2473904-12.53379573s12.4857289 5.22809542 12.7286096 12.04479573c-.3439187.0065798-.6802318.1023739-.976.278-.3102701-.1836961-.6644301-.2800968-1.025-.279-.2614796-5.59712973-4.8717705-10.00276337-10.475-10.01zm2.51 19.988c-.049-1.265.031-4.4 1.8-6.174 1.5-1.494 4.061-1.877 6.174-1.8.049 1.265-.031 4.4-1.8 6.174s-4.912 1.848-6.174 1.8zm9 7.01c-1.7-1.584-3.347-3.9-2.934-6.267.5575242-.305231 1.0703443-.6858082 1.524-1.131.5818144-.5948713 1.0555617-1.2865424 1.4-2.044.3444383.7574576.8181856 1.4491287 1.4 2.044.4533482.4451176.9658277.8256917 1.523 1.131.412 2.357-1.21 4.645-2.912 6.269zm8.977-7.008c-1.268.041-4.4-.031-6.174-1.8-1.493-1.494-1.879-4.07-1.813-6.174h.011c1.264-.044 4.4.031 6.174 1.8s1.854 4.907 1.803 6.174z"/><path id="Shape" d="m45 43.428c-1.774.256-5.007 1.055-6.715 3.53s-1.309 5.783-.919 7.531c.2127972.9961141 1.1650836 1.6537705 2.172 1.5 1.774-.256 5.006-1.053 6.716-3.53s1.309-5.783.919-7.534c-.218573-.992383-1.1678685-1.6463615-2.173-1.497zm-.393 7.9c-1.326 1.921-4.187 2.519-5.29 2.733-.258-1.153-.713-4.04.613-5.96 1.3-1.891 4.1-2.5 5.3-2.68.27 1.179.686 4.012-.619 5.902z"/></g></g></g></svg>