<svg height="512" viewBox="0 0 512 512" width="512" xmlns="http://www.w3.org/2000/svg"><g id="_26_Iron" data-name="26 Iron"><path d="m431.44 507h-350.89a75.64 75.64 0 0 1 -75.55-75.56v-192.56a6 6 0 0 1 12 0v192.56a63.63 63.63 0 0 0 63.55 63.56h350.89a63.63 63.63 0 0 0 63.56-63.56v-350.89a63.63 63.63 0 0 0 -63.56-63.55h-350.89a63.62 63.62 0 0 0 -63.55 63.55v111.53a6 6 0 0 1 -12 0v-111.53a75.63 75.63 0 0 1 75.55-75.55h350.89a75.64 75.64 0 0 1 75.56 75.55v350.89a75.65 75.65 0 0 1 -75.56 75.56z"/><path d="m11 226a6 6 0 0 1 -6-6v-9a6 6 0 0 1 12 0v9a6 6 0 0 1 -6 6z"/><path d="m127 367.69a26.39 26.39 0 0 1 -26.36-26.36v-176.33a24.83 24.83 0 0 1 24.8-24.81h68.13a26 26 0 1 1 0 52h-40.26v27.11h40.51a25.71 25.71 0 0 1 0 51.41h-36.32a4.2 4.2 0 0 0 -4.19 4.19v66.42a26.4 26.4 0 0 1 -26.31 26.37zm-1.56-215.48a12.81 12.81 0 0 0 -12.85 12.79v176.33a14.36 14.36 0 0 0 28.72 0v-66.42a16.2 16.2 0 0 1 16.19-16.19h36.32a13.71 13.71 0 0 0 0-27.41h-41.06a11.45 11.45 0 0 1 -11.45-11.45v-28.21a11.46 11.46 0 0 1 11.45-11.45h40.76a14 14 0 1 0 0-28z"/><path d="m322.8 371.79c-26.54 0-48.52-8.55-65.34-25.42s-25.33-38.22-25.33-63.49c0-25.82 8.48-47.61 25.22-64.76s38-25.91 63.25-25.91c26.65 0 48.69 8.72 65.52 25.9s25.29 40 25.29 67.85v.11a13.83 13.83 0 0 1 -13.76 13.5h-111.78a1 1 0 0 0 -.84.44 1.06 1.06 0 0 0 -.12 1 34.71 34.71 0 0 0 10.59 15c7 5.82 15.84 8.65 27 8.65a46.73 46.73 0 0 0 27.35-8.21 24.47 24.47 0 0 1 24.17-2 24.35 24.35 0 0 1 3.72 42 78.93 78.93 0 0 1 -10.56 6.21c-12.49 6.04-27.43 9.13-44.38 9.13zm-2.2-167.58c-22.15 0-40 7.29-54.67 22.29s-21.8 33.48-21.8 56.38c0 22.29 7.14 40.28 21.83 55s33.28 21.89 56.84 21.89c15.12 0 28.28-2.68 39.12-8a67.82 67.82 0 0 0 9-5.27 12.08 12.08 0 0 0 5.08-10.99 12.33 12.33 0 0 0 -7.1-10.22 12.47 12.47 0 0 0 -12.28 1 59.15 59.15 0 0 1 -34.14 10.32c-13.88 0-25.54-3.84-34.66-11.41a47 47 0 0 1 -14.18-20 13 13 0 0 1 12.21-17.61h111.8a1.76 1.76 0 0 0 1.76-1.69c0-24.58-7.37-44.56-21.87-59.37-14.68-15.03-33.31-22.32-56.94-22.32zm38.08 63.87h-72.79a10.51 10.51 0 0 1 -9.21-15.61c4-7.18 8.25-12.37 13-15.87a54 54 0 0 1 32.92-10.55 51.41 51.41 0 0 1 30.56 9.47 46.74 46.74 0 0 1 14.94 17.31 10.54 10.54 0 0 1 -.48 10.29 10.42 10.42 0 0 1 -8.94 4.96zm-70.21-12h67.73a35.33 35.33 0 0 0 -10-10.8c-6.8-4.87-14.51-7.23-23.58-7.23-9.92 0-18.35 2.68-25.77 8.19a34.37 34.37 0 0 0 -8.38 9.84z"/><path d="m263.46 100.36a6 6 0 0 1 -6-5.9c0-.22 0-.38 0-.54v-29c0-11.11 8.73-20.16 19.47-20.16h4.77a19.65 19.65 0 0 1 18.73 14.64 6 6 0 0 1 -11.58 3.15 7.63 7.63 0 0 0 -7.16-5.84h-4.77c-4.12 0-7.47 3.66-7.47 8.16v29.24.25a6 6 0 0 1 -5.99 6z"/><path d="m279.3 116.71a21.86 21.86 0 1 1 21.86-21.86 21.87 21.87 0 0 1 -21.86 21.86zm0-31.71a9.86 9.86 0 1 0 9.86 9.85 9.86 9.86 0 0 0 -9.86-9.85z"/><path d="m246.56 116.71h-26.33a7.78 7.78 0 0 1 -6.4-12.2l24.17-34.94a9.48 9.48 0 0 0 1.4-7.14 7.55 7.55 0 0 0 -3.13-5 3.46 3.46 0 0 0 -3-.59c-4.36 1.07-9.4 7.91-11.16 11.06a6 6 0 0 1 -10.51-5.9c.82-1.46 8.25-14.29 18.79-16.87a15.46 15.46 0 0 1 12.45 2.22 19.44 19.44 0 0 1 8.32 12.75 21.48 21.48 0 0 1 -3.31 16.25l-19.57 28.32h18.28a6 6 0 0 1 0 12z"/><path d="m300.87 464a6 6 0 0 1 -6-6v-40a6 6 0 0 1 12 0v40a6 6 0 0 1 -6 6z"/><path d="m324 464a6 6 0 0 1 -6-6v-28.46a5.57 5.57 0 0 0 -11.14 0v28.46a6 6 0 0 1 -12 0v-28.46a17.57 17.57 0 0 1 35.14 0v28.46a6 6 0 0 1 -6 6z"/><path d="m264.72 464a26 26 0 1 1 26-26 26 26 0 0 1 -26 26zm0-40a14 14 0 1 0 14 14 14 14 0 0 0 -14-14z"/><path d="m229.33 434.62a6 6 0 0 1 -6-6 4.89 4.89 0 0 0 -9.77 0 6 6 0 0 1 -12 0 16.89 16.89 0 0 1 33.77 0 6 6 0 0 1 -6 6z"/><path d="m207.55 464a6 6 0 0 1 -6-6v-40a6 6 0 0 1 12 0v40a6 6 0 0 1 -6 6z"/><path d="m188 464a6 6 0 0 1 -6-6v-64.67a6 6 0 1 1 12 0v64.67a6 6 0 0 1 -6 6z"/></g></svg>