<svg id="Image" height="512" viewBox="0 0 64 64" width="512" xmlns="http://www.w3.org/2000/svg"><g><path d="m37 26c-9.374 0-17 7.626-17 17s7.626 17 17 17 17-7.626 17-17-7.626-17-17-17zm0 32c-8.271 0-15-6.729-15-15s6.729-15 15-15 15 6.729 15 15-6.729 15-15 15z"/><path d="m30 17c0-7.168-5.831-13-12.999-13-7.169 0-13.001 5.832-13.001 13s5.832 13 13.001 13c7.168 0 12.999-5.832 12.999-13zm-12.999 11c-6.066 0-11.001-4.935-11.001-11s4.935-11 11.001-11c6.064 0 10.999 4.935 10.999 11s-4.935 11-10.999 11z"/><path d="m49 4c-6.065 0-11 4.935-11 11s4.935 11 11 11 11-4.935 11-11-4.935-11-11-11zm0 20c-4.963 0-9-4.038-9-9s4.037-9 9-9 9 4.038 9 9-4.037 9-9 9z"/><path d="m48 18h-2.382l3.276-6.553c.334-.666-.155-1.447-.894-1.447h-4c-1.324 0-1.323 2 0 2h2.382l-3.276 6.553c-.334.666.155 1.447.894 1.447h4c1.324 0 1.323-2 0-2z"/><path d="m53 13c-.462 0-.895.114-1.287.301-.625-.638-1.713-.195-1.713.699v2 3c0 1.323 2 1.324 2 0v-3c0-.551.448-1 1-1s1 .449 1 1v3c0 1.323 2 1.324 2 0v-3c0-1.654-1.346-3-3-3z"/><path d="m12.5 13c.827 0 1.5.673 1.5 1.5 0 .552.447 1 1 1s1-.448 1-1c0-1.93-1.57-3.5-3.5-3.5s-3.5 1.57-3.5 3.5v5c0 1.93 1.57 3.5 3.5 3.5s3.5-1.57 3.5-3.5c0-.552-.447-1-1-1s-1 .448-1 1c0 .827-.673 1.5-1.5 1.5s-1.5-.673-1.5-1.5v-5c0-.827.673-1.5 1.5-1.5z"/><path d="m24 21v-1.5-1-2.5c0-.964-1.245-1.392-1.814-.548-.503-.279-1.072-.452-1.686-.452-1.93 0-3.5 1.57-3.5 3.5v1c0 1.93 1.57 3.5 3.5 3.5.757 0 1.454-.248 2.027-.658.366.401.888.658 1.473.658 1.324 0 1.323-2 0-2zm-3.5 0c-.827 0-1.5-.673-1.5-1.5v-1c0-.827.673-1.5 1.5-1.5s1.5.673 1.5 1.5v1c0 .827-.673 1.5-1.5 1.5z"/><path d="m36.187 35.419-4.187 5.86-4.187-5.86c-.562-.788-1.813-.391-1.813.581v12c0 1.323 2 1.324 2 0v-8.879l3.187 4.46c.375.526 1.252.526 1.627 0l3.186-4.46v8.879c0 1.323 2 1.324 2 0v-12c0-.972-1.251-1.368-1.813-.581z"/><path d="m45.186 41.452c-.503-.279-1.072-.452-1.686-.452-1.93 0-3.5 1.57-3.5 3.5v1c0 1.93 1.57 3.5 3.5 3.5h1.5v1.5c0 .827-.673 1.5-1.5 1.5s-1.5-.673-1.5-1.5c0-1.323-2-1.324-2 0 0 1.93 1.57 3.5 3.5 3.5s3.5-1.57 3.5-3.5v-2.5-3.5-2.5c0-.964-1.245-1.392-1.814-.548zm-3.186 4.048v-1c0-.827.673-1.5 1.5-1.5s1.5.673 1.5 1.5v2.5h-1.5c-.827 0-1.5-.673-1.5-1.5z"/></g></svg>