<svg id="Watering_Can" enable-background="new 0 0 64 64" height="512" viewBox="0 0 64 64" width="512" xmlns="http://www.w3.org/2000/svg"><path d="m1.2302 50.20592c-.18156 0-.36552-.04088-.53987-.12505-.61081-.29819-.8633-1.03645-.56512-1.64725.38596-.79116.84407-1.55828 1.35988-2.28691.39318-.55069 1.16149-.68535 1.71699-.28857.55429.39198.68415 1.1615.29097 1.71699-.43887.61562-.82723 1.26971-1.15548 1.94063-.21401.43766-.65167.69016-1.10737.69016zm5.84955-6.10806c.34027-.22364.70219-.44007 1.08574-.64688.59878-.32224.82363-1.06771.50139-1.66649-.32103-.59878-1.06891-.82242-1.66769-.50259-.44849.24047-.87052.49538-1.27091.7575-.56752.37273-.72623 1.13504-.3535 1.70496.23567.36071.62884.5555 1.03043.5555.23206-.00001.46532-.06493.67454-.202zm5.89764-2.23882c.75269-.11303 1.5174-.17074 2.27249-.17315.68054-.0024 1.23003-.5555 1.22762-1.23604s-.47013-1.21921-1.23484-1.22642c-.87533.0024-1.76027.06974-2.63079.202-.67213.101-1.13624.72623-1.03524 1.39956.09258.61081.61682 1.04847 1.2168 1.04847.06011.00001.12144-.0048.18396-.01442zm-6.05516 11.38648c.14188-.32945.30661-.66611.49177-1.00999.32464-.59878.1022-1.34666-.49538-1.6689-.59638-.32464-1.34546-.1034-1.66889.49538-.22124.4064-.41602.8104-.58556 1.19757-.27174.62283.01323 1.34906.63726 1.6208.15992.06974.32705.1034.49057.1034.47494-.00001.92824-.27655 1.13023-.73826zm3.30292-4.36222.24649-.18036c.55189-.39919.67694-1.16871.28015-1.71939-.39678-.55069-1.1639-.67814-1.71819-.28136l-.28496.20921c-.54467.40881-.65529 1.18073-.24649 1.72421.24168.32224.61081.49297.98595.49297.25731.00001.51582-.07935.73705-.24528zm4.24919-1.73622c.37755-.04569.73946-.06733 1.08214-.06974.68054-.00481 1.22762-.5579 1.22402-1.23845-.00481-.67814-.55429-1.22401-1.23123-1.22401-.0024 0-.00481 0-.00721 0-.43406.0024-.89216.02885-1.37071.08897-.67453.08417-1.15428.69738-1.07011 1.37311.07695.62283.6072 1.07973 1.22041 1.07973.05049.00001.10099-.0024.15269-.00961zm47.09286-18.40595c3.3212-4.40965 3.25203-11.12304-.26987-15.32441-1.82022-2.17024-4.28048-3.38041-6.93082-3.40043-2.6703-.00995-5.2206 1.18019-7.13086 3.39042-.13368.15651-.25534.32084-.37981.4834l-.92382-.93255c-1.07972-1.09413-2.8544-1.17592-4.03515-.18636l-13.68298 11.48147c-1.18074.98956-1.40678 2.74984-.51703 4.00512l11.35451 16.0535-12.32704.08912-.05634-.78024-.1548-2.19008 5.36063-.74008c.68007-.09004 1.15016-.71011 1.06013-1.39018-.09999-.67006-.72006-1.14015-1.39018-1.05011l-6.06024.83781-4.29269-2.7883c-.6277-.41362-1.42003-.43285-2.06812-.05048s-1.01721 1.08454-.96307 1.83482l.78269 10.82381c.05292.75266.51947 1.3947 1.2156 1.68087.24289.09864.49542.14674.74673.14674.46771 0 .92699-.16835 1.29129-.4906l3.85905-3.38676 14.72882-.09688.32432.45849c.7623 1.07728 1.95024 1.79153 3.25845 1.96227.20199.02643.40154.03846.60359.03846 1.10615 0 2.19069-.38957 3.04681-1.10859l13.93788-11.69428c1.01239-.84892 1.62562-2.08973 1.68575-3.40873.06251-1.319-.4353-2.6128-1.36351-3.5506zm-40.24171 18.99031-.63728-8.82302 3.327 2.16182.29215 4.0448zm8.38052-20.89606c-.15389-.21884-.11543-.52307.09016-.69619l13.68303-11.48148c.09858-.08174.2164-.12263.33427-.12263.13466 0 .26694.0517.3679.15511l1.0456 1.05548-.00159.00134-.29001.24002-14.37959 12.0496zm30.66652 7.69636-13.93789 11.69433c-.49536.41356-1.11824.59877-1.75308.51221-.63722-.0818-1.19277-.41607-1.56305-.94268l-11.1372-15.74377 14.98178-12.55351 13.56339 13.69201c.45208.4569.68533 1.06171.65645 1.70382-.03125.64205-.31742 1.22396-.8104 1.63759zm-.55383-7.55578-11.21272-11.31904c.15529-.21786.31174-.43474.48993-.64003 1.42015-1.64015 3.27035-2.54028 5.21059-2.54028h.04004c1.92021.01001 3.7104.91014 5.07055 2.52032 2.74154 3.26375 2.8549 8.44736.40161 11.97903z"/></svg>